<svg width="400" height="240" viewBox="0 0 400 240" fill="none" xmlns="http://www.w3.org/2000/svg">
  <rect width="400" height="240" fill="url(#gradient4)"/>
  <defs>
    <linearGradient id="gradient4" x1="0%" y1="0%" x2="100%" y2="100%">
      <stop offset="0%" style="stop-color:#667eea;stop-opacity:0.9" />
      <stop offset="100%" style="stop-color:#764ba2;stop-opacity:1" />
    </linearGradient>
  </defs>
  
  <!-- SaaSランディングページ -->
  <!-- ヒーローセクション -->
  <rect x="50" y="40" width="150" height="10" rx="5" fill="white" fill-opacity="0.9"/>
  <rect x="50" y="58" width="200" height="6" rx="3" fill="white" fill-opacity="0.7"/>
  <rect x="50" y="72" width="180" height="6" rx="3" fill="white" fill-opacity="0.5"/>
  
  <!-- CTA ボタン */
  <rect x="50" y="95" width="80" height="25" rx="12.5" fill="#00BFFF" fill-opacity="0.9"/>
  <rect x="140" y="95" width="80" height="25" rx="12.5" fill="white" fill-opacity="0.2" stroke="white" stroke-width="1"/>
  
  <!-- ダッシュボードモックアップ */
  <rect x="50" y="140" width="300" height="80" rx="8" fill="white" fill-opacity="0.15"/>
  <rect x="60" y="150" width="280" height="8" rx="4" fill="white" fill-opacity="0.3"/>
  
  <!-- グラフ要素 */
  <rect x="70" y="165" width="40" height="30" rx="2" fill="white" fill-opacity="0.2"/>
  <rect x="73" y="185" width="8" height="8" rx="1" fill="#00BFFF" fill-opacity="0.7"/>
  <rect x="83" y="180" width="8" height="13" rx="1" fill="#00BFFF" fill-opacity="0.8"/>
  <rect x="93" y="175" width="8" height="18" rx="1" fill="#00BFFF" fill-opacity="0.9"/>
  <rect x="103" y="170" width="8" height="23" rx="1" fill="#00BFFF" fill-opacity="1"/>
  
  <!-- 統計カード -->
  <rect x="130" y="165" width="60" height="30" rx="4" fill="white" fill-opacity="0.2"/>
  <rect x="140" y="172" width="20" height="4" rx="2" fill="white" fill-opacity="0.8"/>
  <rect x="140" y="180" width="15" height="3" rx="1.5" fill="white" fill-opacity="0.6"/>
  
  <rect x="210" y="165" width="60" height="30" rx="4" fill="white" fill-opacity="0.2"/>
  <rect x="220" y="172" width="20" height="4" rx="2" fill="white" fill-opacity="0.8"/>
  <rect x="220" y="180" width="15" height="3" rx="1.5" fill="white" fill-opacity="0.6"/>
  
  <!-- 装飾要素 */
  <circle cx="320" cy="60" r="20" fill="white" fill-opacity="0.1"/>
  <circle cx="340" cy="80" r="15" fill="white" fill-opacity="0.08"/>
  <circle cx="360" cy="100" r="10" fill="white" fill-opacity="0.06"/>
</svg>