<svg width="400" height="240" viewBox="0 0 400 240" fill="none" xmlns="http://www.w3.org/2000/svg">
  <rect width="400" height="240" fill="url(#gradient2)"/>
  <defs>
    <linearGradient id="gradient2" x1="0%" y1="0%" x2="100%" y2="100%">
      <stop offset="0%" style="stop-color:#333333;stop-opacity:0.9" />
      <stop offset="100%" style="stop-color:#000000;stop-opacity:1" />
    </linearGradient>
  </defs>
  
  <!-- ミニマルなデザイン要素 -->
  <rect x="60" y="60" width="80" height="80" rx="40" fill="none" stroke="#00BFFF" stroke-width="2" stroke-opacity="0.4"/>
  
  <!-- ポートフォリオグリッド -->
  <rect x="180" y="40" width="60" height="40" rx="4" fill="white" fill-opacity="0.1"/>
  <rect x="250" y="40" width="60" height="40" rx="4" fill="white" fill-opacity="0.08"/>
  <rect x="320" y="40" width="60" height="40" rx="4" fill="white" fill-opacity="0.06"/>
  
  <rect x="180" y="90" width="60" height="40" rx="4" fill="white" fill-opacity="0.08"/>
  <rect x="250" y="90" width="60" height="40" rx="4" fill="white" fill-opacity="0.1"/>
  <rect x="320" y="90" width="60" height="40" rx="4" fill="white" fill-opacity="0.06"/>
  
  <!-- テキスト要素 -->
  <rect x="60" y="160" width="120" height="4" rx="2" fill="#00BFFF" fill-opacity="0.8"/>
  <rect x="60" y="170" width="80" height="3" rx="1.5" fill="white" fill-opacity="0.6"/>
  <rect x="60" y="180" width="100" height="3" rx="1.5" fill="white" fill-opacity="0.4"/>
  
  <!-- 装飾線 -->
  <line x1="200" y1="160" x2="350" y2="160" stroke="#00BFFF" stroke-width="1" stroke-opacity="0.3"/>
  <circle cx="355" cy="160" r="2" fill="#00BFFF" fill-opacity="0.5"/>
</svg>