<svg width="400" height="240" viewBox="0 0 400 240" fill="none" xmlns="http://www.w3.org/2000/svg">
  <rect width="400" height="240" fill="url(#gradient1)"/>
  <defs>
    <linearGradient id="gradient1" x1="0%" y1="0%" x2="100%" y2="100%">
      <stop offset="0%" style="stop-color:#00BFFF;stop-opacity:0.8" />
      <stop offset="100%" style="stop-color:#0080CC;stop-opacity:0.9" />
    </linearGradient>
  </defs>
  
  <!-- ロゴプレースホルダー -->
  <rect x="50" y="40" width="120" height="40" rx="4" fill="white" fill-opacity="0.2"/>
  
  <!-- ナビゲーション -->
  <rect x="280" y="45" width="40" height="2" rx="1" fill="white" fill-opacity="0.6"/>
  <rect x="330" y="45" width="40" height="2" rx="1" fill="white" fill-opacity="0.6"/>
  
  <!-- ヒーローセクション -->
  <rect x="50" y="100" width="200" height="8" rx="4" fill="white" fill-opacity="0.8"/>
  <rect x="50" y="115" width="150" height="6" rx="3" fill="white" fill-opacity="0.6"/>
  <rect x="50" y="140" width="80" height="20" rx="4" fill="white" fill-opacity="0.9"/>
  
  <!-- カードレイアウト -->
  <rect x="260" y="90" width="100" height="60" rx="8" fill="white" fill-opacity="0.15"/>
  <rect x="270" y="100" width="20" height="20" rx="10" fill="white" fill-opacity="0.4"/>
  <rect x="295" y="103" width="50" height="3" rx="1.5" fill="white" fill-opacity="0.6"/>
  <rect x="295" y="110" width="35" height="2" rx="1" fill="white" fill-opacity="0.4"/>
  
  <!-- フッター -->
  <rect x="0" y="200" width="400" height="40" fill="black" fill-opacity="0.1"/>
  <rect x="50" y="215" width="60" height="3" rx="1.5" fill="white" fill-opacity="0.4"/>
  <rect x="320" y="210" width="30" height="10" rx="5" fill="white" fill-opacity="0.3"/>
  
  <!-- 装飾要素 -->
  <circle cx="350" cy="170" r="3" fill="white" fill-opacity="0.3"/>
  <circle cx="365" cy="180" r="2" fill="white" fill-opacity="0.2"/>
</svg>